<?xml version="1.0" encoding="UTF-8"?><svg xmlns="http://www.w3.org/2000/svg" viewBox="0 0 119.41 173.23"><defs><style>.f{fill:#853685;}.g{fill:#5e2960;}</style></defs><g id="a"/><g id="b"><g id="c"><g id="d"><g id="e"><g><path class="f" d="M119.37,6.27c0-1.81-.1-3.67-1.62-4.76-1.11-.8-2.62-1.44-3.96-1.44C96.81-.03,79.83,0,62.86,0h-3.16V120.82c.67,.63,1.13,1.06,1.57,1.49,15.94,15.94,31.87,31.88,47.84,47.79,1.18,1.17,2.6,2.09,3.91,3.13h2.71c2.97-1.53,3.68-4.05,3.68-7.25-.06-53.24-.05-106.47-.03-159.71h-.01Z"/><path class="g" d="M.03,6.27C.03,4.46,.13,2.6,1.65,1.51,2.76,.71,4.27,.08,5.61,.07,22.59-.03,39.57,0,56.54,0h3.16V120.82c-.67,.63-1.13,1.06-1.57,1.49-15.94,15.94-31.87,31.88-47.84,47.79-1.18,1.17-2.6,2.09-3.91,3.13H3.68c-2.98-1.53-3.68-4.05-3.68-7.25C.06,112.75,.05,59.51,.03,6.27Z"/></g></g></g></g></g></svg>