<?xml version="1.0" encoding="utf-8"?>
<!-- Generator: Adobe Illustrator 26.2.1, SVG Export Plug-In . SVG Version: 6.00 Build 0)  -->
<svg version="1.1" id="Ebene_1" xmlns="http://www.w3.org/2000/svg" xmlns:xlink="http://www.w3.org/1999/xlink" x="0px" y="0px"
	 viewBox="0 0 291.9 344.9" style="enable-background:new 0 0 291.9 344.9;" xml:space="preserve">
<style type="text/css">
	.st0{fill:#FFFFFF;}
</style>
<g id="a">
</g>
<g id="b">
	<g id="c">
		<path class="st0" d="M30.1,344.9h-6.7c-0.3-0.1-0.6-0.3-0.9-0.4C7.2,341,0,332,0,316.3c0-95.9,0-191.7,0-287.6
			c0-2.9,0.1-5.9,0.7-8.7C3.4,7.9,14.3,0,28,0c78.6,0,157.2,0,235.8,0c2.8,0,5.6,0.3,8.3,1c13.2,3.8,19.8,12.9,19.8,27.2
			c0,96.1,0,192.2,0,288.3c0,1,0,2-0.1,3c-0.4,9.7-4.8,17.1-13.2,21.6c-3.6,1.9-8,2.5-12.1,3.7h-2.7c-10.6-0.9-17.7-7.7-24.8-14.6
			c-29.9-29-60-57.8-90-86.6c-0.9-0.9-1.9-1.8-3.1-2.8c-1.1,1-2.1,1.9-3.1,2.8c-31,29.8-62,59.5-92.9,89.4
			C44.2,338.7,38.1,343.5,30.1,344.9L30.1,344.9z M262.5,29.4H29.6V312c39-37.4,77.6-74.4,116.4-111.6
			c38.9,37.3,77.5,74.3,116.5,111.8L262.5,29.4L262.5,29.4z"/>
	</g>
</g>
</svg>
