<?xml version="1.0" encoding="UTF-8"?><svg xmlns="http://www.w3.org/2000/svg" viewBox="0 0 291.92 344.94"><defs></defs><g id="a"/><g id="b"><g id="c"><path class="d" d="M30.06,344.94h-6.74c-.31-.14-.6-.33-.92-.4C7.18,341.02,0,331.99,0,316.31,0,220.44,0,124.57,.03,28.69c0-2.9,.1-5.88,.73-8.69C3.41,7.95,14.31,.01,28.05,.01,106.65,0,185.25,0,263.84,.05c2.77,0,5.65,.29,8.3,1.04,13.24,3.77,19.77,12.87,19.77,27.24,0,96.1,0,192.2,0,288.29,0,1.01-.02,2.02-.06,3.03-.37,9.66-4.76,17.08-13.21,21.58-3.65,1.94-8.03,2.51-12.07,3.71h-2.7c-10.62-.92-17.67-7.7-24.84-14.63-29.93-28.95-60-57.75-90.03-86.61-.95-.91-1.94-1.79-3.06-2.83-1.13,1.04-2.12,1.93-3.07,2.84-31,29.78-62.04,59.52-92.95,89.4-5.76,5.56-11.78,10.35-19.87,11.82ZM262.5,29.36H29.58V311.97c39.02-37.42,77.62-74.45,116.39-111.63,38.91,37.32,77.49,74.32,116.54,111.77V29.36Z"/></g></g></svg>