<?xml version="1.0" encoding="UTF-8"?><svg xmlns="http://www.w3.org/2000/svg" viewBox="0 0 509.58 509.86"><defs><style>.d{fill:#fff;}</style></defs><g id="a"/><g id="b"><g id="c"><path class="d" d="M505.6,235.17c-2.37-5.93-6.97-11.33-11.57-15.96-61.38-61.67-122.95-123.16-184.47-184.69-7.51-7.51-15.23-14.83-22.56-22.53-12.75-13.4-38.36-15.02-52.41-7.6-5.05,2.67-9.92,6.16-13.96,10.19C151.96,83.05,83.42,151.66,14.86,220.24c-1.29,1.29-2.55,2.62-3.73,4.01-23.13,27.16-8.28,69.67,26.72,76.22,5.31,.99,10.81,1.02,16.84,1.54v6.26c0,47.66,.64,95.34-.22,142.98-.6,33.14,25.16,59.49,58.45,58.58,24.89-.68,49.81-.13,74.71-.14,12.91,0,18.39-5.53,18.4-18.55,0-38.2-.03-76.39,.02-114.59,.02-16.72,10.29-26.97,27.04-27.05,14.27-.06,28.55-.03,42.82-.01,18.06,.03,28.12,10.02,28.13,27.97,.02,38.03,0,76.06,.01,114.09,0,12.55,5.65,18.13,18.3,18.13,25.24,0,50.48,.08,75.71-.06,4.94-.03,10.01-.36,14.8-1.49,25.55-6.02,42.44-27.57,42.51-54.31,.12-48.66,.04-97.32,.04-145.98,0-1.95,0-3.89,0-6.4,3.29,0,6.08,.1,8.85-.02,34.45-1.47,54.29-33.94,41.35-66.28Zm-25.75,22.74c-1.67,8.09-8.28,13.52-16.69,13.66-6.81,.12-13.62,0-20.42,.04-11.25,.05-17.22,5.98-17.22,17.23-.02,54.14,0,108.28-.01,162.43,0,18.75-9.79,28.54-28.52,28.55-20.75,0-41.5,0-63.06,0,0-2.55,0-4.5,0-6.45,0-32.72,.15-65.44-.05-98.15-.17-27-17.36-48.3-43.27-54.2-1.61-.37-3.27-.76-4.9-.76-20.41-.06-40.89-1.14-61.2,.22-26.47,1.78-47.75,25.09-48.15,51.64-.5,33.71-.18,67.43-.22,101.14,0,1.96,0,3.92,0,6.28-1.98,.11-3.57,.28-5.17,.28-19.76,.02-39.52,.03-59.28,0-16.71-.02-27.09-10.3-27.1-26.94-.03-54.14,0-108.28-.01-162.43,0-13.32-5.45-18.83-18.64-18.84-6.14,0-12.29,0-18.43,0-7.57,0-13.19-3.4-16.18-10.29-3.1-7.13-1.48-13.69,3.95-19.19,8.17-8.27,16.43-16.45,24.65-24.67,60-60.01,120-120.02,180-180.03,10.9-10.91,19.37-10.93,30.21-.09,67.27,67.28,134.53,134.59,201.85,201.82,5.28,5.27,9.53,10.75,7.88,18.76Z"/></g></g></svg>