<?xml version="1.0" encoding="UTF-8"?><svg xmlns="http://www.w3.org/2000/svg" viewBox="0 0 402.51 524.08"><defs><style>.d{fill:#fff;}</style></defs><g id="a"/><g id="b"><g id="c"><g><path class="d" d="M387.04,126.44c-40.07-40.22-80.34-80.24-120.49-120.39C263.11,2.6,259.59,0,254.31,0c-62.95,.12-125.91,.15-188.86,.11-10.14,0-20,1.17-29.15,5.73C11.93,18,.01,37.89,0,65.03,0,130.73,0,196.42,0,262.12c0,64.97-.02,129.94,.04,194.91,0,5.08,.04,10.25,.93,15.22,5.61,31.1,30.68,51.66,63.55,51.71,91.16,.14,182.32,.21,273.47-.19,9.2-.04,19.13-1.78,27.45-5.55,24.98-11.32,36.94-31.71,36.94-59.11,0-98.64,.07-197.28-.05-295.91-.03-25.8,3.09-18.33-15.29-36.77Zm-119.3-80.78c0-.51,.2-1.02,.44-2.2,30.39,30.64,60.32,60.81,90.29,91.03,.28-.24,.02,.17-.24,.18-18.54,.04-37.1,.57-55.61-.09-19.17-.68-34.46-16.83-34.8-36-.31-17.63-.09-35.27-.08-52.91Zm109.71,412.71c0,25.5-15.22,40.53-40.87,40.54-90.22,.01-180.44,.01-270.66,0-25.72,0-41.08-15.33-41.08-41.05-.02-130.63-.02-261.25,0-391.88,0-25.67,15.5-41.15,41.08-41.16,56.75-.01,113.5,0,170.25,0h6.56c0,24.93-.4,48.95,.11,72.94,.55,26.25,13.12,45.56,37,56.28,8.18,3.68,17.85,5.19,26.92,5.52,21.25,.78,42.55,.25,63.84,.25,1.98,0,3.96,0,6.56,0,.11,2.21,.3,4.12,.3,6.03,.01,97.52,.03,195.03,0,292.55Z"/><path class="d" d="M201.28,404.53c39.82,0,79.64-.02,119.46,.02,9.05,0,14.9,5.61,14.24,13.42-.49,5.86-4.7,10.42-10.73,11.37-1.96,.31-3.99,.23-5.99,.23-78.01,0-156.01,.01-234.02-.02-2.52,0-5.13-.04-7.55-.66-5.88-1.5-9.55-6.75-9.2-12.56,.37-6.03,4.94-10.92,11.05-11.66,1.8-.22,3.63-.12,5.45-.12,39.09,0,78.19,0,117.28,0Z"/><path class="d" d="M201.04,334.91c-39.81,0-79.63,.03-119.44-.02-9.55-.01-15.38-6.29-13.84-14.59,.99-5.33,4.83-9.14,10.21-9.88,2.15-.29,4.35-.27,6.53-.27,77.81-.01,155.62-.01,233.43,0,2.36,0,4.75-.03,7.07,.35,6.02,.98,10.23,6.31,10.04,12.41-.19,6.13-4.66,11.12-10.75,11.83-1.98,.23-3.99,.17-5.99,.17-39.09,0-78.17,0-117.26,0Z"/><path class="d" d="M146.64,240.73c-21.26,0-42.51,.03-63.77-.04-2.5,0-5.14-.2-7.46-1.03-5.16-1.84-7.81-5.94-7.88-11.3-.07-5.37,2.6-9.38,7.62-11.52,1.47-.63,3.15-1.06,4.74-1.06,44.87-.06,89.75-.1,134.62,0,6.37,.01,10.81,3.84,12.27,9.65,1.3,5.15-.97,11.09-5.85,13.42-2.66,1.27-5.91,1.79-8.89,1.81-21.8,.15-43.6,.08-65.4,.08Z"/></g></g></g></svg>