<?xml version="1.0" encoding="UTF-8"?><svg xmlns="http://www.w3.org/2000/svg" viewBox="0 0 263.6 311.58"><defs><style>.d{fill:#fff;}</style></defs><g id="a"/><g id="b"><g id="c"><g><path class="d" d="M131.07,311.58c28.18-.34,55.1-3.38,81.16-12.03,14.06-4.66,27.41-10.71,38.41-20.99,8.74-8.16,13.4-18,12.91-30.24-.65-16.11-3.65-31.66-9.76-46.59-6.75-16.49-16.47-31-29.12-43.55-3.58-3.55-7.8-4.87-12.66-3.16-4.66,1.64-7.34,5.05-7.98,9.93-.56,4.29,1.25,7.7,4.22,10.71,18.79,19.06,28.78,42.05,31.26,68.66,.86,9.19-1.96,16.05-9.66,20.57-6.74,3.95-13.68,7.79-20.95,10.56-20.23,7.7-41.45,10.75-62.96,11.73-31.13,1.42-61.8-1.16-91.41-11.68-8.84-3.14-17.29-7.12-24.43-13.41-4.25-3.75-6.85-8.15-6.11-14.11,.51-4.08,.56-8.22,1.17-12.28,3.5-23.17,13.53-43.09,29.89-59.87,5.4-5.54,5.46-12.78,.43-17.65-4.97-4.82-12.33-4.43-17.63,1.03C13.4,184.45,.88,214.67,.01,249.78c-.24,9.89,3.21,18.29,9.73,25.53,9.08,10.09,20.71,16.31,33.11,21.15,28.64,11.16,58.6,14.7,88.22,15.13ZM131.85,0C85.81-.06,48.04,37.44,47.93,83.31c-.11,46.68,37.33,84.33,83.97,84.42,45.56,.09,83.67-37.59,83.71-82.77C215.66,37.66,178.58,.06,131.85,0Z"/><path class="d" d="M131.07,311.58c-29.62-.43-59.59-3.97-88.22-15.13-12.4-4.83-24.02-11.06-33.11-21.15C3.22,268.06-.23,259.66,.01,249.78c.86-35.11,13.38-65.33,37.83-90.56,5.29-5.46,12.65-5.85,17.63-1.03,5.03,4.87,4.98,12.11-.43,17.65-16.36,16.78-26.39,36.7-29.89,59.87-.61,4.06-.66,8.2-1.17,12.28-.74,5.95,1.86,10.36,6.11,14.11,7.14,6.3,15.59,10.27,24.43,13.41,29.61,10.52,60.28,13.09,91.41,11.68,21.52-.98,42.73-4.03,62.96-11.73,7.27-2.77,14.21-6.6,20.95-10.56,7.7-4.52,10.51-11.38,9.66-20.57-2.48-26.61-12.46-49.6-31.26-68.66-2.96-3.01-4.78-6.42-4.22-10.71,.64-4.87,3.31-8.29,7.98-9.93,4.86-1.7,9.08-.39,12.66,3.16,12.65,12.54,22.37,27.06,29.12,43.55,6.11,14.93,9.11,30.48,9.76,46.59,.49,12.24-4.18,22.08-12.91,30.24-11,10.28-24.35,16.33-38.41,20.99-26.06,8.64-52.98,11.69-81.16,12.03Z"/><path class="d" d="M131.85,0c46.73,.06,83.81,37.66,83.76,84.96-.04,45.19-38.15,82.86-83.71,82.77-46.64-.09-84.08-37.74-83.97-84.42C48.04,37.44,85.81-.06,131.85,0Zm59.81,83.81c.03-33.04-26.87-59.83-60.11-59.85-32.61-.01-59.62,26.96-59.65,59.57-.03,33.1,26.63,60.13,59.37,60.21,33.47,.08,60.36-26.61,60.39-59.94Z"/><path class="d" d="M191.65,83.81c-.03,33.34-26.92,60.03-60.39,59.94-32.75-.08-59.4-27.11-59.37-60.21,.03-32.61,27.04-59.59,59.65-59.57,33.24,.01,60.15,26.8,60.11,59.85Z"/></g></g></g></svg>